PathFileType	4	(X/Y/Z)	/Users/itak/Documents/Research/Walk-IL/dataset/trc/00287_00010.trc
DataRate	CameraRate	NumFrames	NumMarkers	Units	OrigDataRate	OrigDataStartFrame	OrigNumFrames
100.000000	100.000000	4	54	mm	100.000000	170	683
Frame#	Time	RPSI			LPSI			L3			STRN			T10			C7			CLAV			RBAK			LBAK			LSHO			LUPA			LAEL			LAOL			LWTS			LWPS			LFRA			LHPS			LHTS			RSHO			RUPA			RAEL			RAOL			RWTS			RWPS			RFRA			RHTS			RHPS			RBHD			LFHD			RFHD			LBHD			LHIP			RHIP			RASI			LASI			LKNE			LTHI			LANK			LTIP			LTOE			LMT1			LMT5			LHEE			RKNE			RTHI			RANK			RTIP			RTOE			RMT1			RMT5			RHEE			RIFD			LIFD			*53			
		X1	Y1	Z1	X2	Y2	Z2	X3	Y3	Z3	X4	Y4	Z4	X5	Y5	Z5	X6	Y6	Z6	X7	Y7	Z7	X8	Y8	Z8	X9	Y9	Z9	X10	Y10	Z10	X11	Y11	Z11	X12	Y12	Z12	X13	Y13	Z13	X14	Y14	Z14	X15	Y15	Z15	X16	Y16	Z16	X17	Y17	Z17	X18	Y18	Z18	X19	Y19	Z19	X20	Y20	Z20	X21	Y21	Z21	X22	Y22	Z22	X23	Y23	Z23	X24	Y24	Z24	X25	Y25	Z25	X26	Y26	Z26	X27	Y27	Z27	X28	Y28	Z28	X29	Y29	Z29	X30	Y30	Z30	X31	Y31	Z31	X32	Y32	Z32	X33	Y33	Z33	X34	Y34	Z34	X35	Y35	Z35	X36	Y36	Z36	X37	Y37	Z37	X38	Y38	Z38	X39	Y39	Z39	X40	Y40	Z40	X41	Y41	Z41	X42	Y42	Z42	X43	Y43	Z43	X44	Y44	Z44	X45	Y45	Z45	X46	Y46	Z46	X47	Y47	Z47	X48	Y48	Z48	X49	Y49	Z49	X50	Y50	Z50	X51	Y51	Z51	X52	Y52	Z52	X53	Y53	Z53	X54	Y54	Z54	

171	1.7	-369.6263122558594	966.4497680664062	884.0091552734375	-495.0696105957031	957.5169067382812	1004.794799804688	-434.1171264648438	1033.576049804688	929.1182861328125	-616.7538452148438	1213.637817382812	760.379150390625	-416.7656860351562	1152.299560546875	937.0214233398438	-461.1249084472656	1397.340576171875	913.80615234375	-571.6478271484375	1311.539672851562	805.577880859375	-371.07861328125	1261.36083984375	894.4620971679688	-516.9553833007812	1361.497924804688	1001.247253417969	-619.6907348632812	1366.535522460938	981.424072265625	-628.654541015625	1259.365112304688	1070.346069335938	-612.00830078125	1060.699462890625	1109.973754882812	-528.4652709960938	1056.325927734375	1090.152954101562	-630.4911499023438	826.9237670898438	1061.053344726562	-632.321533203125	824.4757080078125	1131.740234375	-616.2395629882812	956.8699951171875	1126.1015625	-623.947265625	736.5088500976562	1140.08447265625	-647.908203125	726.741455078125	1079.162353515625	-403.5700988769531	1373.69873046875	753.5286865234375	-352.6841430664062	1316.2890625	710.2679443359375	-296.8394470214844	1054.279541015625	676.7457275390625	-334.2802429199219	1041.93994140625	763.4530029296875	-449.5343627929688	864.7090454101562	617.6672973632812	-370.5128479003906	845.5750122070312	591.110595703125	-317.0730895996094	992.6442260742188	644.0138549804688	-487.0374755859375	762.597412109375	565.2724609375	-418.1353759765625	745.804443359375	560.1979370117188	-436.9112854003906	1552.9443359375	862.5443115234375	-628.8743286132812	1588.885498046875	777.2339477539062	-549.6746215820312	1583.6240234375	730.158203125	-562.6184692382812	1551.402221679688	937.1051025390625	-616.1824340820312	916.8515625	1017.127319335938	-364.7143859863281	915.372802734375	739.3733520507812	-498.8378295898438	923.0949096679688	700.1512451171875	-669.4446411132812	936.9376831054688	883.840576171875	-780.5654907226562	507.563720703125	825.7369384765625	-746.3190307617188	626.8311157226562	895.14208984375	-879.0697631835938	63.27790069580078	770.7991943359375	-838.183349609375	286.6277770996094	804.9098510742188	-884.6513061523438	131.3610382080078	572.1389770507812	-832.943115234375	85.46270751953125	613.156982421875	-928.7272338867188	103.3823928833008	665.4215087890625	-813.2656860351562	36.13947296142578	791.834716796875	-405.2305603027344	451.0820007324219	833.2536010742188	-413.2543334960938	699.1609497070312	733.5166625976562	-295.1395568847656	52.3838005065918	1009.597045898438	-408.814453125	329.3334350585938	879.2125244140625	-497.9646911621094	43.86001586914062	1000.214538574219	-455.8293762207031	44.46393966674805	1054.400634765625	-387.104736328125	40.38430023193359	957.2977905273438	-262.6692199707031	61.94235610961914	1074.58056640625	-498.7122192382812	688.9308471679688	584.2457885742188	-613.9932861328125	643.8635864257812	1086.443725585938	nan	nan	nan	
172	1.71	-377.6636047363281	965.5350952148438	878.53076171875	-504.1783752441406	956.6187133789062	998.1318969726562	-442.158203125	1032.058227539062	922.9257202148438	-623.3597412109375	1212.252563476562	753.4408569335938	-424.9310302734375	1150.622314453125	931.2547607421875	-468.6239929199219	1395.773315429688	908.2276611328125	-578.724853515625	1310.194946289062	798.9869384765625	-378.6821899414062	1259.76708984375	889.22216796875	-525.1244506835938	1359.564208984375	995.1919555664062	-627.6307983398438	1364.483032226562	974.8472290039062	-636.7583618164062	1257.16796875	1063.678100585938	-619.7630615234375	1058.59326171875	1103.343383789062	-536.1203002929688	1054.25341796875	1083.490356445312	-636.0405883789062	824.146484375	1056.1552734375	-637.845458984375	822.3370361328125	1126.873168945312	-623.134033203125	954.8314208984375	1120.25634765625	-628.6077270507812	734.6317749023438	1136.090942382812	-652.4559326171875	723.9453125	1075.20458984375	-409.9562377929688	1372.477783203125	748.261474609375	-358.5105895996094	1315.155151367188	705.4497680664062	-301.7680358886719	1053.184692382812	673.88037109375	-340.328369140625	1041.058349609375	760.062744140625	-450.3800659179688	860.3637084960938	614.3265380859375	-370.4476928710938	842.3926391601562	589.3345947265625	-320.5110778808594	990.8853149414062	641.3738403320312	-485.0787963867188	757.0792846679688	562.4977416992188	-415.7200012207031	741.4656982421875	558.7198486328125	-444.1950988769531	1551.670166015625	857.4693603515625	-635.343017578125	1587.52978515625	770.3916015625	-555.7295532226562	1582.324462890625	724.062255859375	-570.6223754882812	1550.02685546875	930.8877563476562	-625.3711547851562	915.704833984375	1009.367919921875	-371.1037902832031	914.0724487304688	734.1803588867188	-504.9212951660156	921.2715454101562	693.239501953125	-677.379150390625	935.50390625	875.4650268554688	-786.9093017578125	506.1216430664062	816.7655639648438	-752.9522094726562	625.23779296875	886.1993408203125	-880.3656616210938	60.26514053344727	764.5440673828125	-841.9413452148438	284.0829467773438	796.883056640625	-883.4930419921875	126.1006546020508	565.3548583984375	-832.1046752929688	81.09342956542969	607.4172973632812	-928.7471313476562	98.45410919189453	658.0374145507812	-814.5388793945312	34.33371353149414	786.7652587890625	-409.4691467285156	450.3136901855469	829.3912963867188	-418.2716369628906	697.8477783203125	728.6140747070312	-295.6103820800781	54.11822509765625	1009.503540039062	-412.0921020507812	328.7381286621094	876.1526489257812	-498.0703125	43.90067291259766	1000.084594726562	-456.1364135742188	44.75414657592773	1054.25048828125	-387.3296203613281	40.84820556640625	957.1439819335938	-263.3182373046875	64.91549682617188	1074.44775390625	-495.6329956054688	683.4696655273438	582.1447143554688	-617.6051025390625	641.4993286132812	1083.463134765625	nan	nan	nan	
173	1.72	-385.9161987304688	964.9249877929688	872.759033203125	-513.49658203125	956.06396484375	991.1871337890625	-450.4476623535156	1030.724609375	916.4497680664062	-630.079833984375	1211.178100585938	746.287841796875	-433.2063293457031	1149.012084960938	925.2665405273438	-476.142578125	1394.294921875	902.5706787109375	-585.8662109375	1309.136596679688	792.247802734375	-386.4204406738281	1258.1962890625	883.8390502929688	-533.343994140625	1357.70166015625	989.0143432617188	-635.5745239257812	1362.580078125	968.176513671875	-644.8775634765625	1255.089965820312	1056.915649414062	-627.6001586914062	1056.62744140625	1096.609741210938	-543.8565063476562	1052.209838867188	1076.569580078125	-641.8734130859375	821.5350341796875	1051.05712890625	-643.5814819335938	820.3319702148438	1121.816772460938	-630.1876831054688	952.9113159179688	1114.23681640625	-633.4808349609375	732.91357421875	1131.868896484375	-657.23486328125	721.3075561523438	1071.035522460938	-416.3216552734375	1371.424682617188	742.9465942382812	-364.3145141601562	1314.199584960938	700.5906372070312	-306.8413696289062	1052.265991210938	671.007568359375	-346.58251953125	1040.364379882812	756.5926513671875	-450.9821472167969	856.0657348632812	611.040771484375	-370.1374206542969	839.3522338867188	587.7688598632812	-323.9565734863281	989.2861938476562	638.7760009765625	-482.6391906738281	751.5555419921875	559.9111328125	-412.8714599609375	737.2301635742188	557.5488891601562	-451.45361328125	1550.605346679688	852.33056640625	-641.7852172851562	1586.369384765625	763.420654296875	-561.7274780273438	1581.219360351562	717.8666381835938	-578.61669921875	1548.876708984375	924.5648193359375	-634.7612915039062	914.85498046875	1001.387878417969	-377.6734619140625	912.9950561523438	728.7722778320312	-511.1801147460938	919.6314697265625	686.026123046875	-685.4917602539062	934.2504272460938	866.8828125	-792.9063720703125	504.5378112792969	807.7642822265625	-759.4649658203125	623.7017822265625	877.1040649414062	-881.0158081054688	57.30668640136719	759.2256469726562	-845.1044921875	281.4190063476562	789.2838134765625	-881.2498779296875	119.6564636230469	559.2440795898438	-830.2069702148438	75.92005157470703	602.6491088867188	-927.7933349609375	92.86524200439453	651.3171997070312	-815.1658325195312	32.78428268432617	782.846435546875	-413.9148864746094	449.694580078125	825.2619018554688	-423.5123901367188	696.6974487304688	723.48974609375	-296.154296875	56.14881134033203	1009.187133789062	-415.5388793945312	328.31005859375	872.844970703125	-498.1751098632812	43.951171875	999.9136352539062	-456.4166564941406	45.13149261474609	1054.0185546875	-387.6330261230469	41.3568229675293	956.9025268554688	-264.0164184570312	68.29523468017578	1074.043701171875	-492.0537719726562	678.0722045898438	580.362548828125	-621.52392578125	639.3301391601562	1080.250854492188	nan	nan	nan	
174	1.73	-394.3459777832031	964.58447265625	866.6621704101562	-522.9838256835938	955.850341796875	983.955322265625	-458.9676513671875	1029.604370117188	909.6757202148438	-636.9097290039062	1210.436889648438	738.911376953125	-441.5379028320312	1147.503173828125	919.0521240234375	-483.7058715820312	1392.931640625	896.8223266601562	-593.0592651367188	1308.381591796875	785.3585205078125	-394.2955627441406	1256.678833007812	878.3132934570312	-541.6100463867188	1355.945556640625	982.712646484375	-643.5411376953125	1360.86474609375	961.3989868164062	-653.0401611328125	1253.156127929688	1050.019897460938	-635.5309448242188	1054.837524414062	1089.750366210938	-551.6859130859375	1050.247924804688	1069.390014648438	-648.0374145507812	819.1399536132812	1045.719482421875	-649.5800170898438	818.4949951171875	1116.530883789062	-637.4276733398438	951.1467895507812	1108.022705078125	-638.5968627929688	731.3822631835938	1127.384643554688	-662.2525634765625	718.8673095703125	1066.60595703125	-422.6605834960938	1370.562866210938	737.583740234375	-370.0983276367188	1313.447387695312	695.693115234375	-312.0592346191406	1051.54345703125	668.1118774414062	-353.0485534667969	1039.882080078125	753.0247802734375	-451.3451843261719	851.8784790039062	607.8218383789062	-369.60498046875	836.513916015625	586.414306640625	-327.4219055175781	987.8876342773438	636.2099609375	-479.7373657226562	746.0914306640625	557.5411987304688	-409.6104125976562	733.172119140625	556.70166015625	-458.6797485351562	1549.750244140625	847.1369018554688	-648.1831665039062	1585.447998046875	756.330810546875	-567.6433715820312	1580.34619140625	711.5830078125	-586.5916137695312	1547.963256835938	918.1310424804688	-644.3159790039062	914.3401489257812	993.21435546875	-384.4256591796875	912.1143188476562	723.1043701171875	-517.6278076171875	918.2078857421875	678.522705078125	-693.7576904296875	933.2110595703125	858.1244506835938	-798.5277709960938	502.8759460449219	798.7178344726562	-765.90625	622.240234375	867.8748779296875	-881.33935546875	54.63694763183594	754.6463623046875	-847.846923828125	278.7920837402344	781.9786376953125	-878.1536865234375	112.1332168579102	553.6085815429688	-827.5046997070312	70.09970092773438	598.6903076171875	-926.1290283203125	86.83466339111328	645.0672607421875	-815.5066528320312	31.68877029418945	779.88330078125	-418.6217956542969	449.2145080566406	820.880615234375	-429.0252685546875	695.6898193359375	718.1262817382812	-296.7904357910156	58.48882293701172	1008.677490234375	-419.1677856445312	328.0494079589844	869.2972412109375	-498.2807922363281	44.00950241088867	999.7051391601562	-456.689453125	45.59487152099609	1053.7109375	-388.0197448730469	41.87277984619141	956.5868530273438	-264.8200988769531	72.11176300048828	1073.405029296875	-487.969482421875	672.8076171875	578.9054565429688	-625.7427978515625	637.3966674804688	1076.765380859375	nan	nan	nan	
